<svg xmlns="http://www.w3.org/2000/svg" version="1.1" xmlns:xlink="http://www.w3.org/1999/xlink" xmlns:svgjs="http://svgjs.com/svgjs" width="283" height="64" preserveAspectRatio="none" viewBox="0 0 283 64"><g mask="url(&quot;#SvgjsMask1079&quot;)" fill="none"><rect width="283" height="64" x="0" y="0" fill="rgba(227, 45, 45, 0.81)"></rect><path d="M0,83.044C16.738,80.17,35.083,85.994,49.567,77.127C64.149,68.2,68.451,49.866,77.691,35.48C88.739,18.277,111.798,4.579,109.184,-15.698C106.578,-35.915,80.112,-42.505,65.771,-56.991C52.658,-70.236,45.325,-89.085,28.531,-97.167C10.397,-105.894,-11.196,-109.525,-30.311,-103.23C-49.229,-97,-60.344,-78.643,-73.397,-63.599C-86.459,-48.545,-102.917,-34.915,-106.583,-15.324C-110.302,4.55,-100.792,23.827,-93.27,42.595C-85.4,62.231,-81.269,87.841,-61.861,96.258C-42.117,104.821,-21.211,86.686,0,83.044" fill="rgba(156, 21, 21, 0.81)"></path><path d="M283 131.107C295.362 129.817 301.852 116.074 311.207 107.89099999999999 319.009 101.066 326.835 95.038 333.402 87.018 342.071 76.43 355.645 67.231 355.703 53.547 355.76099999999997 39.918 344.451 28.438000000000002 333.686 20.08 323.94100000000003 12.514000000000003 310.492 14 298.997 9.518999999999998 286.001 4.453000000000003 275.626-10.310000000000002 261.885-7.909999999999997 248.276-5.533000000000001 242.268 10.427 233.357 20.984 224.574 31.389000000000003 212.748 40.166 210.042 53.51 207.284 67.111 210.947 81.849 218.676 93.376 225.92000000000002 104.179 239.517 107.62299999999999 250.736 114.20400000000001 261.425 120.47399999999999 270.675 132.394 283 131.107" fill="rgba(238, 129, 129, 0.81)"></path></g><defs><mask id="SvgjsMask1079"><rect width="283" height="64" fill="#ffffff"></rect></mask></defs></svg>