<svg height="512" viewBox="0 0 512 512" width="512" xmlns="http://www.w3.org/2000/svg"><g id="Layer_2" data-name="Layer 2"><path d="m495.79 306.15c1.24 27.56-2.92 49.03-13.2 62.5v.01c-8.33 10.91-20.66 16.58-37.37 16-16.06-.55-23.16-8.77-24.77-15.13 15.6-1.92 28.84-3.76 36.7-4.88a8.817 8.817 0 1 0 -2.83-17.4c-1.06.19-2.2.4-3.41.61 17.74-25.67 21.02-67.5 16.9-92.5.89.05 25.76 1.81 27.98 50.79z" fill="#fb6771"/><path d="m482.59 368.66c.06.91 3.43 57.74-28.13 56.77-13.38-.42-22.93-.89-29.51-1.29a25.656 25.656 0 0 1 -20.67-12.82c-3.8-6.64-4.9-16.04-5.21-24.92 11.68-5.1 12.86-15.21 12.93-15.84q4.32-.51 8.45-1.03c1.61 6.36 8.71 14.58 24.77 15.13 16.71.58 29.04-5.09 37.37-16z" fill="#555570"/><path d="m393.93 323.16a26.819 26.819 0 0 0 -4.25-25.45l-1.61-2.05-9.53-12.08a26.738 26.738 0 0 0 -11.33-8.4c-.22-.84-11.15-43.5 9.42-50.34 20.62-6.87 23.52-20.3 23.52-20.3v-.01l11.71-1.38a3.884 3.884 0 0 0 2.94-1.94s38.07 8.57 50.25 42.85a66.32 66.32 0 0 1 2.76 11.3c4.12 25 .84 66.83-16.9 92.5-28.54 5.02-99.62 15.23-197.16 13.36 0 0-116.99.82-190.32-12.14-17.77-25.71-22.73-68.53-19.09-93.77a60.032 60.032 0 0 1 2.61-11.25c12.18-34.28 47.51-42.05 47.51-42.05a3.928 3.928 0 0 0 2.35 1.25l8.8 1.28s2.91 13.43 23.52 20.3c20.57 6.84 10.54 49.49 10.33 50.34v.01a26.613 26.613 0 0 0 -11 7.98l-10.26 12.5a26.82 26.82 0 0 0 -3.96 27.49 26.091 26.091 0 0 0 2.35 4.38l1.09 1.63a26.885 26.885 0 0 0 22.39 12h228.49a26.87 26.87 0 0 0 24.11-14.98 24.846 24.846 0 0 0 1.26-3.03z" fill="#d8556b"/><path d="m420.45 369.53q-4.125.525-8.45 1.03c-28.27 3.36-62.01 6.67-85.57 6.67a2.444 2.444 0 0 0 -2.38-1.9h-138.68a2.444 2.444 0 0 0 -2.38 1.9c-22.6 0-54.99-3.04-82.87-6.26q-4.44-.51-8.69-1.02c-17.26-2.08-32.02-4.1-40.44-5.3a8.816 8.816 0 1 1 2.83-17.4q4.665.96 9.61 1.83c73.33 12.96 190.32 12.14 190.32 12.14 97.54 1.87 168.62-8.34 197.16-13.36 1.21-.21 2.35-.42 3.41-.61a8.816 8.816 0 1 1 2.83 17.4c-7.86 1.12-21.1 2.96-36.7 4.88z" fill="#6d7486"/><path d="m445.34 181.37a7.433 7.433 0 0 1 -4.9 9.22l-25.12 8.25a4.4 4.4 0 0 0 -.16-.77l-7.62-24.41.05-.02 22.98-11.15a7.425 7.425 0 0 1 10.46 4.5z" fill="#fb6771"/><path d="m415.32 198.84a3.964 3.964 0 0 1 -3.46 4.31l-11.71 1.38-.98.11a7.61 7.61 0 0 1 -2.38-.11c-161.54-34.58-274.02-4.32-288.08-.2a7.22 7.22 0 0 1 -3.1.21l-8.8-1.28a3.934 3.934 0 0 1 -3.19-5.07l7.66-24.55 19.25-61.65a16.182 16.182 0 0 1 11.03-10.76c27.72-7.86 120.93-28.89 245.21.43a16.171 16.171 0 0 1 11.7 10.94l19.07 61.06 7.62 24.41a4.4 4.4 0 0 1 .16.77z" fill="#6d7486"/><path d="m412 370.56c-.07.63-1.25 10.74-12.93 15.84a34.079 34.079 0 0 1 -9.23 2.47c-20.88 2.78-63.35 4.64-63.35 4.64v-15.74a2.416 2.416 0 0 0 -.06-.54c23.56 0 57.3-3.31 85.57-6.67z" fill="#4e5460"/><path d="m400.15 204.53v.01s-2.9 13.43-23.52 20.3c-20.57 6.84-9.64 49.5-9.42 50.34a26.979 26.979 0 0 0 -9.79-1.84h-208.18a27.005 27.005 0 0 0 -9.78 1.84c.21-.85 10.24-43.5-10.33-50.34-20.61-6.87-23.52-20.3-23.52-20.3a7.22 7.22 0 0 0 3.1-.21c14.06-4.12 126.54-34.38 288.08.2a7.61 7.61 0 0 0 2.38.11z" fill="#fb6771"/><path d="m389.68 297.71a26.819 26.819 0 0 1 4.25 25.45h-279.69a26.82 26.82 0 0 1 3.96-27.49h269.86l.01-.01z" fill="#4a5160"/><path d="m114.24 323.16h279.69a24.846 24.846 0 0 1 -1.26 3.03 26.87 26.87 0 0 1 -24.11 14.98h-228.49a26.885 26.885 0 0 1 -22.39-12l-1.09-1.63a26.091 26.091 0 0 1 -2.35-4.38z" fill="#6d7486"/><path d="m367.21 275.18a26.738 26.738 0 0 1 11.33 8.4l9.53 12.08-.01.01h-269.86l10.26-12.5a26.613 26.613 0 0 1 11-7.98v-.01a27.005 27.005 0 0 1 9.78-1.84h208.18a26.979 26.979 0 0 1 9.79 1.84z" fill="#6d7486"/><path d="m326.43 377.23a2.444 2.444 0 0 0 -2.38-1.9h-138.68a2.444 2.444 0 0 0 -2.38 1.9 2.416 2.416 0 0 0 -.06.54v22.2a2.443 2.443 0 0 0 2.44 2.44h138.68a2.437 2.437 0 0 0 2.44-2.44v-22.2a2.416 2.416 0 0 0 -.06-.54z" fill="#b0b5ca"/><path d="m182.99 377.23a2.416 2.416 0 0 0 -.06.54v15.74s-39.89-1.86-60.77-4.64a35.154 35.154 0 0 1 -9.23-2.44c-12.02-5.15-12.81-15.44-12.81-15.44v-.02c27.88 3.22 60.27 6.26 82.87 6.26z" fill="#4e5460"/><path d="m112.93 386.43c-.32 8.88-1.41 18.25-5.21 24.89a25.656 25.656 0 0 1 -20.67 12.82c-6.58.4-16.13.87-29.51 1.29-31.82.98-28.13-56.78-28.13-56.78 8.32 10.92 20.65 16.59 37.37 16.01 16.08-.55 23.04-8.33 24.65-14.69v-.02q4.245.51 8.69 1.02v.02s.79 10.29 12.81 15.44z" fill="#555570"/><path d="m101.28 173.64-7.66 24.55-24.39-7.6a7.438 7.438 0 0 1 -4.91-9.22l4.31-14.38a7.428 7.428 0 0 1 10.46-4.5z" fill="#fb6771"/><path d="m91.43 369.95v.02c-1.61 6.36-8.57 14.14-24.65 14.69-16.72.58-29.05-5.09-37.37-16.01-10.28-13.47-14.44-34.94-13.2-62.5 2.26-49.87 28.13-50.84 28.13-50.84-3.64 25.24 1.32 68.06 19.09 93.77q-4.95-.87-9.61-1.83a8.816 8.816 0 1 0 -2.83 17.4c8.42 1.2 23.18 3.22 40.44 5.3z" fill="#fb6771"/><path d="m392.71 179.8a5.436 5.436 0 0 1 -6.61 6.76c-28.17-7.43-119.28-25.97-262.37-2.75a5.447 5.447 0 0 1 -6.15-6.75l14.72-55.96a5.426 5.426 0 0 1 3.74-3.84c17.55-5.09 111.32-29.04 235.88.17a5.448 5.448 0 0 1 3.99 3.8z" fill="#88ced8"/><path d="m422.11 230.66a27.9 27.9 0 1 1 -27.92 27.9 27.909 27.909 0 0 1 27.92-27.9z" fill="#b0b5ca"/><path d="m427.36 311.83a11.325 11.325 0 1 1 -11.34 11.33 11.327 11.327 0 0 1 11.34-11.33z" fill="#6addc7"/><ellipse cx="253.61" cy="243.01" fill="#ffa4c2" rx="12.36" ry="12.35"/><path d="m421.85 248.44a10.235 10.235 0 1 1 -10.25 10.24 10.241 10.241 0 0 1 10.25-10.24z" fill="#ccd3df"/><path d="m72.34 255.31a60.032 60.032 0 0 1 2.61-11.25c6.841-19.254 20.985-30.144 32.071-35.992a16.017 16.017 0 0 1 -1.411-3.528l-8.8-1.28a3.928 3.928 0 0 1 -2.35-1.25s-35.33 7.77-47.51 42.05a60.032 60.032 0 0 0 -2.61 11.25c-3.64 25.24 1.32 68.06 19.09 93.77 9.378 1.657 19.472 3.088 29.942 4.325-15.088-27.717-24.345-75.122-21.032-98.095z" fill="#b2475e"/><path d="m57.41 368.65c-.828-1.084-1.6-2.239-2.349-3.426-1.478-.207-2.849-.4-4.071-.574a8.82 8.82 0 0 1 -7.58-8.73 8.885 8.885 0 0 1 4.432-7.679c-3.193-11.644-4.365-25.792-3.632-42.091.155-3.416.424-6.594.784-9.566-2.183-15.2-2.281-30-.654-41.274 0 0-25.87.97-28.13 50.84-1.24 27.56 2.92 49.03 13.2 62.5 8.32 10.92 20.65 16.59 37.37 16.01a38.9 38.9 0 0 0 11.16-1.9 38.861 38.861 0 0 1 -20.53-14.11z" fill="#d35763"/><path d="m145.58 177.06 14.72-55.96a5.426 5.426 0 0 1 3.74-3.84c10.272-2.979 46.661-12.414 100.043-13.875-68.561-1.857-116.063 10.4-128.043 13.875a5.426 5.426 0 0 0 -3.74 3.84l-14.72 55.96a5.447 5.447 0 0 0 6.15 6.75q11.259-1.827 22.078-3.31a5.358 5.358 0 0 1 -.228-3.44z" fill="#74abaf"/><path d="m87.52 230.66a27.9 27.9 0 1 1 -27.92 27.9 27.909 27.909 0 0 1 27.92-27.9z" fill="#b0b5ca"/><path d="m84.94 311.83a11.325 11.325 0 1 1 -11.33 11.33 11.335 11.335 0 0 1 11.33-11.33z" fill="#6addc7"/><path d="m87.26 248.44a10.235 10.235 0 1 1 -10.25 10.24 10.241 10.241 0 0 1 10.25-10.24z" fill="#ccd3df"/><g fill="#f4f8fc"><path d="m238.543 139.733a6 6 0 0 1 -3.732-10.7l11.351-9a6 6 0 1 1 7.457 9.4l-11.351 9a5.981 5.981 0 0 1 -3.725 1.3z"/><path d="m244.022 156.956a6 6 0 0 1 -3.908-10.556l27.4-23.485a6 6 0 1 1 7.81 9.111l-27.4 23.485a5.979 5.979 0 0 1 -3.902 1.445z"/></g></g></svg>